<mxfile host="Electron" agent="Mozilla/5.0 (Windows NT 10.0; Win64; x64) AppleWebKit/537.36 (KHTML, like Gecko) draw.io/24.7.5 Chrome/126.0.6478.183 Electron/31.3.0 Safari/537.36" version="24.7.5">
  <diagram name="Page-1" id="52a04d89-c75d-2922-d76d-85b35f80e030">
    <mxGraphModel dx="2486" dy="2030" grid="1" gridSize="10" guides="1" tooltips="1" connect="1" arrows="1" fold="1" page="1" pageScale="1" pageWidth="1100" pageHeight="850" background="none" math="0" shadow="0">
      <root>
        <mxCell id="0" />
        <mxCell id="1" parent="0" />
        <mxCell id="bnV8PDit981c4TZi3cis-100" value="" style="group" parent="1" vertex="1" connectable="0">
          <mxGeometry x="80" y="90" width="180" height="100" as="geometry" />
        </mxCell>
        <mxCell id="bnV8PDit981c4TZi3cis-101" value="" style="verticalLabelPosition=bottom;verticalAlign=top;html=1;shape=mxgraph.basic.rect;fillColor2=none;strokeWidth=1;size=20;indent=5;fillColor=#0D0D0D;" parent="bnV8PDit981c4TZi3cis-100" vertex="1">
          <mxGeometry width="172.79999999999998" height="94.11764705882354" as="geometry" />
        </mxCell>
        <mxCell id="bnV8PDit981c4TZi3cis-102" value="" style="verticalLabelPosition=bottom;verticalAlign=top;html=1;shape=mxgraph.basic.rect;fillColor2=none;strokeWidth=1;size=20;indent=5;" parent="bnV8PDit981c4TZi3cis-100" vertex="1">
          <mxGeometry x="7.2" y="5.882352941176471" width="172.79999999999998" height="94.11764705882354" as="geometry" />
        </mxCell>
        <mxCell id="bnV8PDit981c4TZi3cis-103" value="Administrator" style="text;html=1;align=center;verticalAlign=middle;whiteSpace=wrap;rounded=0;" parent="bnV8PDit981c4TZi3cis-100" vertex="1">
          <mxGeometry x="7.2" y="37.94" width="170" height="30" as="geometry" />
        </mxCell>
        <mxCell id="bnV8PDit981c4TZi3cis-105" value="D1" style="html=1;dashed=0;whiteSpace=wrap;shape=mxgraph.dfd.dataStoreID;align=left;spacingLeft=3;points=[[0,0],[0.5,0],[1,0],[0,0.5],[1,0.5],[0,1],[0.5,1],[1,1]];" parent="1" vertex="1">
          <mxGeometry x="290" y="250" width="170" height="30" as="geometry" />
        </mxCell>
        <mxCell id="bnV8PDit981c4TZi3cis-106" value="Extinguisher Database" style="text;html=1;align=center;verticalAlign=middle;whiteSpace=wrap;rounded=0;" parent="1" vertex="1">
          <mxGeometry x="320" y="250" width="130" height="30" as="geometry" />
        </mxCell>
        <mxCell id="bnV8PDit981c4TZi3cis-107" value="1.0" style="swimlane;fontStyle=0;childLayout=stackLayout;horizontal=1;startSize=30;horizontalStack=0;resizeParent=1;resizeParentMax=0;resizeLast=0;collapsible=0;marginBottom=0;whiteSpace=wrap;html=1;rounded=1;" parent="1" vertex="1">
          <mxGeometry x="85" y="355" width="140" height="140" as="geometry" />
        </mxCell>
        <mxCell id="bnV8PDit981c4TZi3cis-108" value="View Extinguisher Map" style="text;strokeColor=none;fillColor=none;align=center;verticalAlign=middle;spacingLeft=4;spacingRight=4;overflow=hidden;points=[[0,0.5],[1,0.5]];portConstraint=eastwest;rotatable=0;whiteSpace=wrap;html=1;" parent="bnV8PDit981c4TZi3cis-107" vertex="1">
          <mxGeometry y="30" width="140" height="110" as="geometry" />
        </mxCell>
        <mxCell id="bnV8PDit981c4TZi3cis-109" value="" style="endArrow=classic;html=1;rounded=0;fillColor=#f8cecc;strokeColor=#000000;strokeWidth=3;entryX=0.75;entryY=0;entryDx=0;entryDy=0;exitX=0.711;exitY=1;exitDx=0;exitDy=0;exitPerimeter=0;" parent="1" target="bnV8PDit981c4TZi3cis-107" edge="1">
          <mxGeometry width="50" height="50" relative="1" as="geometry">
            <mxPoint x="189.5" y="190" as="sourcePoint" />
            <mxPoint x="189.5" y="292" as="targetPoint" />
          </mxGeometry>
        </mxCell>
        <mxCell id="bnV8PDit981c4TZi3cis-110" value="" style="endArrow=classic;html=1;rounded=0;fillColor=#f8cecc;strokeColor=#000000;strokeWidth=3;exitX=0.25;exitY=0;exitDx=0;exitDy=0;" parent="1" edge="1">
          <mxGeometry width="50" height="50" relative="1" as="geometry">
            <mxPoint x="154.5" y="355" as="sourcePoint" />
            <mxPoint x="154.5" y="190" as="targetPoint" />
          </mxGeometry>
        </mxCell>
        <mxCell id="bnV8PDit981c4TZi3cis-111" value="" style="endArrow=classic;html=1;rounded=0;fillColor=#f8cecc;strokeColor=#000000;strokeWidth=3;entryX=1.021;entryY=0.391;entryDx=0;entryDy=0;entryPerimeter=0;exitX=0.25;exitY=1;exitDx=0;exitDy=0;" parent="1" target="bnV8PDit981c4TZi3cis-108" edge="1">
          <mxGeometry width="50" height="50" relative="1" as="geometry">
            <mxPoint x="331" y="280" as="sourcePoint" />
            <mxPoint x="330" y="396" as="targetPoint" />
            <Array as="points">
              <mxPoint x="330" y="428" />
            </Array>
          </mxGeometry>
        </mxCell>
        <mxCell id="bnV8PDit981c4TZi3cis-112" value="Sends extinguisher info" style="text;html=1;align=center;verticalAlign=middle;whiteSpace=wrap;rounded=0;" parent="1" vertex="1">
          <mxGeometry x="250" y="389" width="68" height="30" as="geometry" />
        </mxCell>
        <mxCell id="bnV8PDit981c4TZi3cis-113" value="" style="group" parent="1" vertex="1" connectable="0">
          <mxGeometry x="80" y="590" width="180" height="100" as="geometry" />
        </mxCell>
        <mxCell id="bnV8PDit981c4TZi3cis-114" value="" style="verticalLabelPosition=bottom;verticalAlign=top;html=1;shape=mxgraph.basic.rect;fillColor2=none;strokeWidth=1;size=20;indent=5;fillColor=#0D0D0D;" parent="bnV8PDit981c4TZi3cis-113" vertex="1">
          <mxGeometry width="172.79999999999998" height="94.11764705882354" as="geometry" />
        </mxCell>
        <mxCell id="bnV8PDit981c4TZi3cis-115" value="" style="verticalLabelPosition=bottom;verticalAlign=top;html=1;shape=mxgraph.basic.rect;fillColor2=none;strokeWidth=1;size=20;indent=5;" parent="bnV8PDit981c4TZi3cis-113" vertex="1">
          <mxGeometry x="7.2" y="5.882352941176471" width="172.79999999999998" height="94.11764705882354" as="geometry" />
        </mxCell>
        <mxCell id="bnV8PDit981c4TZi3cis-116" value="User" style="text;html=1;align=center;verticalAlign=middle;whiteSpace=wrap;rounded=0;" parent="bnV8PDit981c4TZi3cis-113" vertex="1">
          <mxGeometry x="7.2" y="37.94" width="170" height="30" as="geometry" />
        </mxCell>
        <mxCell id="bnV8PDit981c4TZi3cis-117" value="" style="endArrow=classic;html=1;rounded=0;fillColor=#f8cecc;strokeColor=#000000;strokeWidth=3;" parent="1" edge="1">
          <mxGeometry width="50" height="50" relative="1" as="geometry">
            <mxPoint x="120" y="590" as="sourcePoint" />
            <mxPoint x="120" y="495" as="targetPoint" />
          </mxGeometry>
        </mxCell>
        <mxCell id="bnV8PDit981c4TZi3cis-118" value="" style="endArrow=classic;html=1;rounded=0;fillColor=#f8cecc;strokeColor=#000000;strokeWidth=3;entryX=0.694;entryY=-0.021;entryDx=0;entryDy=0;entryPerimeter=0;exitX=0.821;exitY=1.045;exitDx=0;exitDy=0;exitPerimeter=0;" parent="1" source="bnV8PDit981c4TZi3cis-108" target="bnV8PDit981c4TZi3cis-114" edge="1">
          <mxGeometry width="50" height="50" relative="1" as="geometry">
            <mxPoint x="130" y="600" as="sourcePoint" />
            <mxPoint x="130" y="505" as="targetPoint" />
          </mxGeometry>
        </mxCell>
        <mxCell id="bnV8PDit981c4TZi3cis-119" value="D2" style="html=1;dashed=0;whiteSpace=wrap;shape=mxgraph.dfd.dataStoreID;align=left;spacingLeft=3;points=[[0,0],[0.5,0],[1,0],[0,0.5],[1,0.5],[0,1],[0.5,1],[1,1]];" parent="1" vertex="1">
          <mxGeometry x="530" y="170" width="170" height="30" as="geometry" />
        </mxCell>
        <mxCell id="bnV8PDit981c4TZi3cis-120" value="User Database" style="text;html=1;align=center;verticalAlign=middle;whiteSpace=wrap;rounded=0;" parent="1" vertex="1">
          <mxGeometry x="560" y="170" width="130" height="30" as="geometry" />
        </mxCell>
        <mxCell id="bnV8PDit981c4TZi3cis-121" value="2.0" style="swimlane;fontStyle=0;childLayout=stackLayout;horizontal=1;startSize=30;horizontalStack=0;resizeParent=1;resizeParentMax=0;resizeLast=0;collapsible=0;marginBottom=0;whiteSpace=wrap;html=1;rounded=1;" parent="1" vertex="1">
          <mxGeometry x="390" y="-40" width="140" height="140" as="geometry" />
        </mxCell>
        <mxCell id="bnV8PDit981c4TZi3cis-122" value="Update user type (admin/standard)" style="text;strokeColor=none;fillColor=none;align=center;verticalAlign=middle;spacingLeft=4;spacingRight=4;overflow=hidden;points=[[0,0.5],[1,0.5]];portConstraint=eastwest;rotatable=0;whiteSpace=wrap;html=1;" parent="bnV8PDit981c4TZi3cis-121" vertex="1">
          <mxGeometry y="30" width="140" height="110" as="geometry" />
        </mxCell>
        <mxCell id="bnV8PDit981c4TZi3cis-124" value="Create user account" style="text;html=1;align=center;verticalAlign=middle;whiteSpace=wrap;rounded=0;" parent="1" vertex="1">
          <mxGeometry x="322" y="565" width="68" height="30" as="geometry" />
        </mxCell>
        <mxCell id="bnV8PDit981c4TZi3cis-126" value="" style="endArrow=classic;html=1;rounded=0;fillColor=#f8cecc;strokeColor=#000000;strokeWidth=3;exitX=1.023;exitY=0.288;exitDx=0;exitDy=0;exitPerimeter=0;entryX=0;entryY=0.5;entryDx=0;entryDy=0;" parent="1" source="bnV8PDit981c4TZi3cis-102" target="bnV8PDit981c4TZi3cis-122" edge="1">
          <mxGeometry width="50" height="50" relative="1" as="geometry">
            <mxPoint x="320" y="125" as="sourcePoint" />
            <mxPoint x="320" y="-40" as="targetPoint" />
            <Array as="points">
              <mxPoint x="330" y="123" />
              <mxPoint x="330" y="45" />
            </Array>
          </mxGeometry>
        </mxCell>
        <mxCell id="bnV8PDit981c4TZi3cis-127" value="" style="endArrow=classic;html=1;rounded=0;fillColor=#f8cecc;strokeColor=#000000;strokeWidth=3;entryX=1.007;entryY=0.627;entryDx=0;entryDy=0;entryPerimeter=0;exitX=0.662;exitY=-0.1;exitDx=0;exitDy=0;exitPerimeter=0;" parent="1" source="bnV8PDit981c4TZi3cis-120" target="bnV8PDit981c4TZi3cis-122" edge="1">
          <mxGeometry width="50" height="50" relative="1" as="geometry">
            <mxPoint x="646" y="150" as="sourcePoint" />
            <mxPoint x="706" y="60" as="targetPoint" />
            <Array as="points">
              <mxPoint x="646" y="138" />
              <mxPoint x="646" y="60" />
            </Array>
          </mxGeometry>
        </mxCell>
        <mxCell id="bnV8PDit981c4TZi3cis-128" value="" style="endArrow=classic;html=1;rounded=0;fillColor=#f8cecc;strokeColor=#000000;strokeWidth=3;entryX=0.75;entryY=0;entryDx=0;entryDy=0;" parent="1" edge="1">
          <mxGeometry width="50" height="50" relative="1" as="geometry">
            <mxPoint x="535" as="sourcePoint" />
            <mxPoint x="670.5" y="170" as="targetPoint" />
            <Array as="points">
              <mxPoint x="670" />
            </Array>
          </mxGeometry>
        </mxCell>
        <mxCell id="bnV8PDit981c4TZi3cis-133" value="3.0" style="swimlane;fontStyle=0;childLayout=stackLayout;horizontal=1;startSize=30;horizontalStack=0;resizeParent=1;resizeParentMax=0;resizeLast=0;collapsible=0;marginBottom=0;whiteSpace=wrap;html=1;rounded=1;" parent="1" vertex="1">
          <mxGeometry x="85" y="-200" width="140" height="140" as="geometry" />
        </mxCell>
        <mxCell id="bnV8PDit981c4TZi3cis-134" value="Update/Add/Delete&lt;div&gt;Extinguisher data&lt;/div&gt;" style="text;strokeColor=none;fillColor=none;align=center;verticalAlign=middle;spacingLeft=4;spacingRight=4;overflow=hidden;points=[[0,0.5],[1,0.5]];portConstraint=eastwest;rotatable=0;whiteSpace=wrap;html=1;" parent="bnV8PDit981c4TZi3cis-133" vertex="1">
          <mxGeometry y="30" width="140" height="110" as="geometry" />
        </mxCell>
        <mxCell id="bnV8PDit981c4TZi3cis-135" value="D1" style="html=1;dashed=0;whiteSpace=wrap;shape=mxgraph.dfd.dataStoreID;align=left;spacingLeft=3;points=[[0,0],[0.5,0],[1,0],[0,0.5],[1,0.5],[0,1],[0.5,1],[1,1]];" parent="1" vertex="1">
          <mxGeometry x="370" y="-250" width="170" height="30" as="geometry" />
        </mxCell>
        <mxCell id="bnV8PDit981c4TZi3cis-136" value="Extinguisher Database" style="text;html=1;align=center;verticalAlign=middle;whiteSpace=wrap;rounded=0;" parent="1" vertex="1">
          <mxGeometry x="400" y="-250" width="130" height="30" as="geometry" />
        </mxCell>
        <mxCell id="bnV8PDit981c4TZi3cis-137" value="" style="endArrow=classic;html=1;rounded=0;fillColor=#f8cecc;strokeColor=#000000;strokeWidth=3;exitX=0.237;exitY=-0.032;exitDx=0;exitDy=0;exitPerimeter=0;" parent="1" source="bnV8PDit981c4TZi3cis-101" edge="1">
          <mxGeometry width="50" height="50" relative="1" as="geometry">
            <mxPoint x="120" y="70" as="sourcePoint" />
            <mxPoint x="120" y="-60" as="targetPoint" />
          </mxGeometry>
        </mxCell>
        <mxCell id="bnV8PDit981c4TZi3cis-138" value="" style="endArrow=classic;html=1;rounded=0;fillColor=#f8cecc;strokeColor=#000000;strokeWidth=3;exitX=0.8;exitY=1;exitDx=0;exitDy=0;exitPerimeter=0;" parent="1" source="bnV8PDit981c4TZi3cis-134" edge="1">
          <mxGeometry width="50" height="50" relative="1" as="geometry">
            <mxPoint x="131" y="97" as="sourcePoint" />
            <mxPoint x="197" y="90" as="targetPoint" />
          </mxGeometry>
        </mxCell>
        <mxCell id="bnV8PDit981c4TZi3cis-139" value="" style="endArrow=classic;html=1;rounded=0;fillColor=#f8cecc;strokeColor=#000000;strokeWidth=3;entryX=0;entryY=1;entryDx=0;entryDy=0;" parent="1" target="bnV8PDit981c4TZi3cis-136" edge="1">
          <mxGeometry width="50" height="50" relative="1" as="geometry">
            <mxPoint x="230" y="-160" as="sourcePoint" />
            <mxPoint x="310" y="-30" as="targetPoint" />
            <Array as="points">
              <mxPoint x="400" y="-160" />
            </Array>
          </mxGeometry>
        </mxCell>
        <mxCell id="bnV8PDit981c4TZi3cis-140" value="4.0" style="swimlane;fontStyle=0;childLayout=stackLayout;horizontal=1;startSize=30;horizontalStack=0;resizeParent=1;resizeParentMax=0;resizeLast=0;collapsible=0;marginBottom=0;whiteSpace=wrap;html=1;rounded=1;" parent="1" vertex="1">
          <mxGeometry x="-170" y="-40" width="140" height="140" as="geometry" />
        </mxCell>
        <mxCell id="bnV8PDit981c4TZi3cis-141" value="Notify on upcoming maintenance" style="text;strokeColor=none;fillColor=none;align=center;verticalAlign=middle;spacingLeft=4;spacingRight=4;overflow=hidden;points=[[0,0.5],[1,0.5]];portConstraint=eastwest;rotatable=0;whiteSpace=wrap;html=1;" parent="bnV8PDit981c4TZi3cis-140" vertex="1">
          <mxGeometry y="30" width="140" height="110" as="geometry" />
        </mxCell>
        <mxCell id="bnV8PDit981c4TZi3cis-143" value="" style="endArrow=classic;html=1;rounded=0;fillColor=#f8cecc;strokeColor=#000000;strokeWidth=3;exitX=-0.018;exitY=0.3;exitDx=0;exitDy=0;exitPerimeter=0;entryX=0.636;entryY=-0.014;entryDx=0;entryDy=0;entryPerimeter=0;" parent="1" source="bnV8PDit981c4TZi3cis-135" target="bnV8PDit981c4TZi3cis-140" edge="1">
          <mxGeometry width="50" height="50" relative="1" as="geometry">
            <mxPoint x="1" y="-143" as="sourcePoint" />
            <mxPoint y="-290" as="targetPoint" />
            <Array as="points">
              <mxPoint x="-80" y="-240" />
            </Array>
          </mxGeometry>
        </mxCell>
        <mxCell id="bnV8PDit981c4TZi3cis-144" value="Sends maintenance notification" style="text;html=1;align=center;verticalAlign=middle;whiteSpace=wrap;rounded=0;" parent="1" vertex="1">
          <mxGeometry x="110" y="-280" width="68" height="30" as="geometry" />
        </mxCell>
        <mxCell id="bnV8PDit981c4TZi3cis-145" value="" style="endArrow=classic;html=1;rounded=0;fillColor=#f8cecc;strokeColor=#000000;strokeWidth=3;exitX=0.614;exitY=1.036;exitDx=0;exitDy=0;exitPerimeter=0;entryX=0;entryY=0.744;entryDx=0;entryDy=0;entryPerimeter=0;" parent="1" source="bnV8PDit981c4TZi3cis-141" target="bnV8PDit981c4TZi3cis-101" edge="1">
          <mxGeometry width="50" height="50" relative="1" as="geometry">
            <mxPoint x="-9" y="277" as="sourcePoint" />
            <mxPoint x="-10" y="130" as="targetPoint" />
            <Array as="points">
              <mxPoint x="-84" y="160" />
            </Array>
          </mxGeometry>
        </mxCell>
        <mxCell id="bnV8PDit981c4TZi3cis-146" value="Sends maintenance notification" style="text;html=1;align=center;verticalAlign=middle;whiteSpace=wrap;rounded=0;" parent="1" vertex="1">
          <mxGeometry x="-40" y="120" width="68" height="30" as="geometry" />
        </mxCell>
        <mxCell id="bnV8PDit981c4TZi3cis-147" value="5.0" style="swimlane;fontStyle=0;childLayout=stackLayout;horizontal=1;startSize=30;horizontalStack=0;resizeParent=1;resizeParentMax=0;resizeLast=0;collapsible=0;marginBottom=0;whiteSpace=wrap;html=1;rounded=1;" parent="1" vertex="1">
          <mxGeometry x="460" y="510" width="140" height="140" as="geometry" />
        </mxCell>
        <mxCell id="bnV8PDit981c4TZi3cis-148" value="Create Account" style="text;strokeColor=none;fillColor=none;align=center;verticalAlign=middle;spacingLeft=4;spacingRight=4;overflow=hidden;points=[[0,0.5],[1,0.5]];portConstraint=eastwest;rotatable=0;whiteSpace=wrap;html=1;" parent="bnV8PDit981c4TZi3cis-147" vertex="1">
          <mxGeometry y="30" width="140" height="110" as="geometry" />
        </mxCell>
        <mxCell id="bnV8PDit981c4TZi3cis-149" value="" style="endArrow=classic;html=1;rounded=0;fillColor=#f8cecc;strokeColor=#000000;strokeWidth=3;entryX=0;entryY=0.573;entryDx=0;entryDy=0;entryPerimeter=0;exitX=1.017;exitY=0.076;exitDx=0;exitDy=0;exitPerimeter=0;" parent="1" source="bnV8PDit981c4TZi3cis-115" target="bnV8PDit981c4TZi3cis-148" edge="1">
          <mxGeometry width="50" height="50" relative="1" as="geometry">
            <mxPoint x="358" y="580" as="sourcePoint" />
            <mxPoint x="358" y="668" as="targetPoint" />
          </mxGeometry>
        </mxCell>
        <mxCell id="bnV8PDit981c4TZi3cis-150" value="" style="endArrow=classic;html=1;rounded=0;fillColor=#f8cecc;strokeColor=#000000;strokeWidth=3;exitX=0.679;exitY=-0.007;exitDx=0;exitDy=0;exitPerimeter=0;" parent="1" source="bnV8PDit981c4TZi3cis-147" edge="1">
          <mxGeometry width="50" height="50" relative="1" as="geometry">
            <mxPoint x="550" y="440" as="sourcePoint" />
            <mxPoint x="553" y="202" as="targetPoint" />
          </mxGeometry>
        </mxCell>
        <mxCell id="bnV8PDit981c4TZi3cis-151" value="Create user account" style="text;html=1;align=center;verticalAlign=middle;whiteSpace=wrap;rounded=0;" parent="1" vertex="1">
          <mxGeometry x="482" y="340" width="68" height="30" as="geometry" />
        </mxCell>
        <mxCell id="bnV8PDit981c4TZi3cis-162" value="D2" style="html=1;dashed=0;whiteSpace=wrap;shape=mxgraph.dfd.dataStoreID;align=left;spacingLeft=3;points=[[0,0],[0.5,0],[1,0],[0,0.5],[1,0.5],[0,1],[0.5,1],[1,1]];" parent="1" vertex="1">
          <mxGeometry x="-200" y="310" width="170" height="30" as="geometry" />
        </mxCell>
        <mxCell id="bnV8PDit981c4TZi3cis-163" value="User Database" style="text;html=1;align=center;verticalAlign=middle;whiteSpace=wrap;rounded=0;" parent="1" vertex="1">
          <mxGeometry x="-170" y="310" width="130" height="30" as="geometry" />
        </mxCell>
        <mxCell id="bnV8PDit981c4TZi3cis-164" value="7.0" style="swimlane;fontStyle=0;childLayout=stackLayout;horizontal=1;startSize=30;horizontalStack=0;resizeParent=1;resizeParentMax=0;resizeLast=0;collapsible=0;marginBottom=0;whiteSpace=wrap;html=1;rounded=1;" parent="1" vertex="1">
          <mxGeometry x="-190" y="419" width="140" height="140" as="geometry" />
        </mxCell>
        <mxCell id="bnV8PDit981c4TZi3cis-165" value="Log in" style="text;strokeColor=none;fillColor=none;align=center;verticalAlign=middle;spacingLeft=4;spacingRight=4;overflow=hidden;points=[[0,0.5],[1,0.5]];portConstraint=eastwest;rotatable=0;whiteSpace=wrap;html=1;" parent="bnV8PDit981c4TZi3cis-164" vertex="1">
          <mxGeometry y="30" width="140" height="110" as="geometry" />
        </mxCell>
        <mxCell id="bnV8PDit981c4TZi3cis-166" value="" style="endArrow=classic;html=1;rounded=0;fillColor=#f8cecc;strokeColor=#000000;strokeWidth=3;exitX=-0.023;exitY=0.117;exitDx=0;exitDy=0;exitPerimeter=0;" parent="1" source="bnV8PDit981c4TZi3cis-114" edge="1">
          <mxGeometry width="50" height="50" relative="1" as="geometry">
            <mxPoint x="-115.5" y="722.5" as="sourcePoint" />
            <mxPoint x="-115.5" y="557.5" as="targetPoint" />
            <Array as="points">
              <mxPoint x="-115" y="601" />
            </Array>
          </mxGeometry>
        </mxCell>
        <mxCell id="bnV8PDit981c4TZi3cis-167" value="" style="endArrow=classic;html=1;rounded=0;fillColor=#f8cecc;strokeColor=#000000;strokeWidth=3;exitX=0.5;exitY=0;exitDx=0;exitDy=0;entryX=0.385;entryY=1.1;entryDx=0;entryDy=0;entryPerimeter=0;" parent="1" source="bnV8PDit981c4TZi3cis-164" target="bnV8PDit981c4TZi3cis-163" edge="1">
          <mxGeometry width="50" height="50" relative="1" as="geometry">
            <mxPoint x="-270" y="545" as="sourcePoint" />
            <mxPoint x="-120" y="350" as="targetPoint" />
          </mxGeometry>
        </mxCell>
        <mxCell id="bnV8PDit981c4TZi3cis-168" value="" style="endArrow=classic;html=1;rounded=0;fillColor=#f8cecc;strokeColor=#000000;strokeWidth=3;entryX=0.8;entryY=-0.014;entryDx=0;entryDy=0;entryPerimeter=0;" parent="1" target="bnV8PDit981c4TZi3cis-164" edge="1">
          <mxGeometry width="50" height="50" relative="1" as="geometry">
            <mxPoint x="-80" y="342" as="sourcePoint" />
            <mxPoint x="-60" y="390" as="targetPoint" />
          </mxGeometry>
        </mxCell>
        <mxCell id="bnV8PDit981c4TZi3cis-169" value="" style="endArrow=classic;html=1;rounded=0;fillColor=#f8cecc;strokeColor=#000000;strokeWidth=3;entryX=1.021;entryY=0.282;entryDx=0;entryDy=0;entryPerimeter=0;" parent="1" target="bnV8PDit981c4TZi3cis-165" edge="1">
          <mxGeometry width="50" height="50" relative="1" as="geometry">
            <mxPoint x="77" y="180" as="sourcePoint" />
            <mxPoint x="31" y="363.5" as="targetPoint" />
            <Array as="points">
              <mxPoint y="180" />
              <mxPoint y="480" />
            </Array>
          </mxGeometry>
        </mxCell>
        <mxCell id="bnV8PDit981c4TZi3cis-171" value="" style="endArrow=classic;html=1;rounded=0;fillColor=#f8cecc;strokeColor=#000000;strokeWidth=3;exitX=0.229;exitY=1.036;exitDx=0;exitDy=0;entryX=0;entryY=0.531;entryDx=0;entryDy=0;entryPerimeter=0;exitPerimeter=0;" parent="1" source="bnV8PDit981c4TZi3cis-165" target="bnV8PDit981c4TZi3cis-114" edge="1">
          <mxGeometry width="50" height="50" relative="1" as="geometry">
            <mxPoint y="726" as="sourcePoint" />
            <mxPoint y="650" as="targetPoint" />
            <Array as="points">
              <mxPoint x="-158" y="640" />
            </Array>
          </mxGeometry>
        </mxCell>
        <mxCell id="bnV8PDit981c4TZi3cis-172" value="" style="endArrow=classic;html=1;rounded=0;fillColor=#f8cecc;strokeColor=#000000;strokeWidth=3;exitX=1.021;exitY=0.627;exitDx=0;exitDy=0;entryX=0.385;entryY=1.1;entryDx=0;entryDy=0;entryPerimeter=0;exitPerimeter=0;" parent="1" source="bnV8PDit981c4TZi3cis-165" edge="1">
          <mxGeometry width="50" height="50" relative="1" as="geometry">
            <mxPoint x="100" y="266" as="sourcePoint" />
            <mxPoint x="100" y="190" as="targetPoint" />
            <Array as="points">
              <mxPoint x="40" y="520" />
              <mxPoint x="40" y="240" />
              <mxPoint x="100" y="240" />
            </Array>
          </mxGeometry>
        </mxCell>
        <mxCell id="bnV8PDit981c4TZi3cis-173" value="Login info" style="text;html=1;align=center;verticalAlign=middle;whiteSpace=wrap;rounded=0;" parent="1" vertex="1">
          <mxGeometry x="-62" y="576" width="68" height="30" as="geometry" />
        </mxCell>
        <mxCell id="bnV8PDit981c4TZi3cis-174" value="Login info" style="text;html=1;align=center;verticalAlign=middle;whiteSpace=wrap;rounded=0;" parent="1" vertex="1">
          <mxGeometry x="-68" y="230" width="68" height="30" as="geometry" />
        </mxCell>
        <mxCell id="bnV8PDit981c4TZi3cis-175" value="validate" style="text;html=1;align=center;verticalAlign=middle;whiteSpace=wrap;rounded=0;" parent="1" vertex="1">
          <mxGeometry x="-80" y="359" width="68" height="30" as="geometry" />
        </mxCell>
      </root>
    </mxGraphModel>
  </diagram>
</mxfile>
